# xmcd
#
# Track frame offsets: 
#        150
#        21715
#        43385
#        69735
#        87755
#        107925
#        131567
#        157390
#        174722
#        194452
#        214307
#        236635
#        255567
#        272375
#        301985
#
# Disc length: 4337 seconds
#
# Revision: 2
# Processed by: cddbd v1.5.2PL0 Copyright (c) Steve Scherf et al.
# Submitted via: ExactAudioCopy v1.3
#
DISCID=e810ef0f
DTITLE=Neville Brothers - Master Series
DYEAR=1900
DGENRE=
TTITLE0=Fly Like An Eagle
TTITLE1=Family Groove
TTITLE2=Let My People Go
TTITLE3=Yellow Moon
TTITLE4=Mystery Train
TTITLE5=River Of My Live
TTITLE6=The Ballad Of Hollis Brown
TTITLE7=Warm Your Heart
TTITLE8=These Foolish Things
TTITLE9=Everybody Plays That Fool
TTITLE10=Bird On A Wire
TTITLE11=Fearless
TTITLE12=A Change Is Gonna Come
TTITLE13=With God On Our Side
TTITLE14=Will The Circle Be Unbroken
EXTD=
EXTT0=
EXTT1=
EXTT2=
EXTT3=
EXTT4=
EXTT5=
EXTT6=
EXTT7=
EXTT8=
EXTT9=
EXTT10=
EXTT11=
EXTT12=
EXTT13=
EXTT14=
PLAYORDER=
